<mxGraphModel dx="0" dy="0" grid="1" gridSize="10" guides="1" tooltips="1" connect="1" arrows="1" fold="1" page="0" pageScale="1" background="none" math="0" shadow="0">
  <root>
    <mxCell id="0" />
    <mxCell id="1" parent="0" />
    <mxCell id="node6" parent="1" vertex="1" value="&lt;p style=&quot;margin:0px;margin-top:4px;text-align:center;&quot;&gt;&lt;b&gt;ActivityController&lt;/b&gt;&lt;/p&gt;&lt;hr size=&quot;1&quot;/&gt;&lt;p style=&quot;margin:0 0 0 4px;line-height:1.6;&quot;&gt;+ ActivityController(): &lt;/p&gt;&lt;hr size=&quot;1&quot;/&gt;&lt;p style=&quot;margin:0 0 0 4px;line-height:1.6;&quot;&gt;- activityService: ActivityService&lt;/p&gt;&lt;hr size=&quot;1&quot;/&gt;&lt;p style=&quot;margin:0 0 0 4px;line-height:1.6;&quot;&gt;+ selectAll(Activity): Result&lt;br/&gt;+ selectPage(Activity, Integer, Integer): Result&lt;br/&gt;+ add(Activity): Result&lt;br/&gt;+ deleteBatch(List&amp;lt;Integer&amp;gt;): Result&lt;br/&gt;+ deleteById(Integer): Result&lt;br/&gt;+ updateById(Activity): Result&lt;br/&gt;+ selectById(Integer): Result&lt;/p&gt;" style="verticalAlign=top;align=left;overflow=fill;fontSize=14;fontFamily=Helvetica;html=1;rounded=0;shadow=0;comic=0;labelBackgroundColor=none;strokeWidth=1;">
      <mxGeometry x="19" y="671" width="300" height="240" as="geometry" />
    </mxCell>
    <mxCell id="node3" parent="1" vertex="1" value="&lt;p style=&quot;margin:0px;margin-top:4px;text-align:center;&quot;&gt;&lt;b&gt;ActivitySignController&lt;/b&gt;&lt;/p&gt;&lt;hr size=&quot;1&quot;/&gt;&lt;p style=&quot;margin:0 0 0 4px;line-height:1.6;&quot;&gt;+ ActivitySignController(): &lt;/p&gt;&lt;hr size=&quot;1&quot;/&gt;&lt;p style=&quot;margin:0 0 0 4px;line-height:1.6;&quot;&gt;- activitySignService: ActivitySignService&lt;/p&gt;&lt;hr size=&quot;1&quot;/&gt;&lt;p style=&quot;margin:0 0 0 4px;line-height:1.6;&quot;&gt;+ updateById(ActivitySign): Result&lt;br/&gt;+ selectPage(ActivitySign, Integer, Integer): Result&lt;br/&gt;+ selectById(Integer): Result&lt;br/&gt;+ selectCount(): Result&lt;br/&gt;+ deleteById(Integer): Result&lt;br/&gt;+ deleteBatch(List&amp;lt;Integer&amp;gt;): Result&lt;br/&gt;+ add(ActivitySign): Result&lt;br/&gt;+ selectAll(ActivitySign): Result&lt;/p&gt;" style="verticalAlign=top;align=left;overflow=fill;fontSize=14;fontFamily=Helvetica;html=1;rounded=0;shadow=0;comic=0;labelBackgroundColor=none;strokeWidth=1;">
      <mxGeometry x="187" y="960" width="325" height="263" as="geometry" />
    </mxCell>
    <mxCell id="node0" parent="1" vertex="1" value="&lt;p style=&quot;margin:0px;margin-top:4px;text-align:center;&quot;&gt;&lt;b&gt;AddressController&lt;/b&gt;&lt;/p&gt;&lt;hr size=&quot;1&quot;/&gt;&lt;p style=&quot;margin:0 0 0 4px;line-height:1.6;&quot;&gt;+ AddressController(): &lt;/p&gt;&lt;hr size=&quot;1&quot;/&gt;&lt;p style=&quot;margin:0 0 0 4px;line-height:1.6;&quot;&gt;- addressService: AddressService&lt;/p&gt;&lt;hr size=&quot;1&quot;/&gt;&lt;p style=&quot;margin:0 0 0 4px;line-height:1.6;&quot;&gt;+ add(Address): Result&lt;br/&gt;+ selectById(Integer): Result&lt;br/&gt;+ deleteBatch(List&amp;lt;Integer&amp;gt;): Result&lt;br/&gt;+ deleteById(Integer): Result&lt;br/&gt;+ selectAll(Address): Result&lt;br/&gt;+ updateById(Address): Result&lt;br/&gt;+ selectPage(Address, Integer, Integer): Result&lt;/p&gt;" style="verticalAlign=top;align=left;overflow=fill;fontSize=14;fontFamily=Helvetica;html=1;rounded=0;shadow=0;comic=0;labelBackgroundColor=none;strokeWidth=1;">
      <mxGeometry x="878" y="371" width="303" height="240" as="geometry" />
    </mxCell>
    <mxCell id="node11" parent="1" vertex="1" value="&lt;p style=&quot;margin:0px;margin-top:4px;text-align:center;&quot;&gt;&lt;b&gt;AdminController&lt;/b&gt;&lt;/p&gt;&lt;hr size=&quot;1&quot;/&gt;&lt;p style=&quot;margin:0 0 0 4px;line-height:1.6;&quot;&gt;+ AdminController(): &lt;/p&gt;&lt;hr size=&quot;1&quot;/&gt;&lt;p style=&quot;margin:0 0 0 4px;line-height:1.6;&quot;&gt;- adminService: AdminService&lt;/p&gt;&lt;hr size=&quot;1&quot;/&gt;&lt;p style=&quot;margin:0 0 0 4px;line-height:1.6;&quot;&gt;+ selectById(Integer): Result&lt;br/&gt;+ deleteBatch(List&amp;lt;Integer&amp;gt;): Result&lt;br/&gt;+ selectPage(Admin, Integer, Integer): Result&lt;br/&gt;+ adminPerson(Integer): Result&lt;br/&gt;+ add(Admin): Result&lt;br/&gt;+ updateById(Admin): Result&lt;br/&gt;+ deleteById(Integer): Result&lt;br/&gt;+ selectAll(Admin): Result&lt;/p&gt;" style="verticalAlign=top;align=left;overflow=fill;fontSize=14;fontFamily=Helvetica;html=1;rounded=0;shadow=0;comic=0;labelBackgroundColor=none;strokeWidth=1;">
      <mxGeometry x="202" y="1620" width="295" height="263" as="geometry" />
    </mxCell>
    <mxCell id="node4" parent="1" vertex="1" value="&lt;p style=&quot;margin:0px;margin-top:4px;text-align:center;&quot;&gt;&lt;b&gt;CategoryController&lt;/b&gt;&lt;/p&gt;&lt;hr size=&quot;1&quot;/&gt;&lt;p style=&quot;margin:0 0 0 4px;line-height:1.6;&quot;&gt;+ CategoryController(): &lt;/p&gt;&lt;hr size=&quot;1&quot;/&gt;&lt;p style=&quot;margin:0 0 0 4px;line-height:1.6;&quot;&gt;- categoryService: CategoryService&lt;/p&gt;&lt;hr size=&quot;1&quot;/&gt;&lt;p style=&quot;margin:0 0 0 4px;line-height:1.6;&quot;&gt;+ selectPage(Category, Integer, Integer): Result&lt;br/&gt;+ deleteById(Integer): Result&lt;br/&gt;+ selectById(Integer): Result&lt;br/&gt;+ deleteBatch(List&amp;lt;Integer&amp;gt;): Result&lt;br/&gt;+ selectAll(Category): Result&lt;br/&gt;+ add(Category): Result&lt;br/&gt;+ updateById(Category): Result&lt;/p&gt;" style="verticalAlign=top;align=left;overflow=fill;fontSize=14;fontFamily=Helvetica;html=1;rounded=0;shadow=0;comic=0;labelBackgroundColor=none;strokeWidth=1;">
      <mxGeometry x="195" y="371" width="309" height="240" as="geometry" />
    </mxCell>
    <mxCell id="node17" parent="1" vertex="1" value="&lt;p style=&quot;margin:0px;margin-top:4px;text-align:center;&quot;&gt;&lt;b&gt;CertificationController&lt;/b&gt;&lt;/p&gt;&lt;hr size=&quot;1&quot;/&gt;&lt;p style=&quot;margin:0 0 0 4px;line-height:1.6;&quot;&gt;+ CertificationController(): &lt;/p&gt;&lt;hr size=&quot;1&quot;/&gt;&lt;p style=&quot;margin:0 0 0 4px;line-height:1.6;&quot;&gt;- userService: UserService&lt;br/&gt;- log: Logger&lt;br/&gt;- certificationService: CertificationService&lt;/p&gt;&lt;hr size=&quot;1&quot;/&gt;&lt;p style=&quot;margin:0 0 0 4px;line-height:1.6;&quot;&gt;+ deleteById(Integer): Result&lt;br/&gt;+ add(Certification): Result&lt;br/&gt;+ selectPageInfo(Certification, Integer, Integer): Result&lt;br/&gt;+ updateById(Certification): Result&lt;br/&gt;+ selectPage(Certification, Integer, Integer): Result&lt;br/&gt;+ selectById(Integer): Result&lt;br/&gt;+ selectUserCertification(): Result&lt;br/&gt;+ selectAll(Certification): Result&lt;br/&gt;+ deleteBatch(List&amp;lt;Integer&amp;gt;): Result&lt;/p&gt;" style="verticalAlign=top;align=left;overflow=fill;fontSize=14;fontFamily=Helvetica;html=1;rounded=0;shadow=0;comic=0;labelBackgroundColor=none;strokeWidth=1;">
      <mxGeometry x="-166" y="2265" width="350" height="332" as="geometry" />
    </mxCell>
    <mxCell id="node7" parent="1" vertex="1" value="&lt;p style=&quot;margin:0px;margin-top:4px;text-align:center;&quot;&gt;&lt;b&gt;CommentController&lt;/b&gt;&lt;/p&gt;&lt;hr size=&quot;1&quot;/&gt;&lt;p style=&quot;margin:0 0 0 4px;line-height:1.6;&quot;&gt;+ CommentController(): &lt;/p&gt;&lt;hr size=&quot;1&quot;/&gt;&lt;p style=&quot;margin:0 0 0 4px;line-height:1.6;&quot;&gt;- commentService: CommentService&lt;/p&gt;&lt;hr size=&quot;1&quot;/&gt;&lt;p style=&quot;margin:0 0 0 4px;line-height:1.6;&quot;&gt;+ selectById(Integer): Result&lt;br/&gt;+ add(Comment): Result&lt;br/&gt;+ deepDelete(Integer): Result&lt;br/&gt;+ updateById(Comment): Result&lt;br/&gt;+ deleteById(Integer): Result&lt;br/&gt;+ selectTree(Integer, String): Result&lt;br/&gt;+ selectPage(Comment, Integer, Integer): Result&lt;br/&gt;+ selectCount(Integer, String): Result&lt;br/&gt;+ deleteBatch(List&amp;lt;Integer&amp;gt;): Result&lt;br/&gt;+ selectAll(Comment): Result&lt;/p&gt;" style="verticalAlign=top;align=left;overflow=fill;fontSize=14;fontFamily=Helvetica;html=1;rounded=0;shadow=0;comic=0;labelBackgroundColor=none;strokeWidth=1;">
      <mxGeometry x="412" y="1937" width="314" height="309" as="geometry" />
    </mxCell>
    <mxCell id="node12" parent="1" vertex="1" value="&lt;p style=&quot;margin:0px;margin-top:4px;text-align:center;&quot;&gt;&lt;b&gt;EvaluateController&lt;/b&gt;&lt;/p&gt;&lt;hr size=&quot;1&quot;/&gt;&lt;p style=&quot;margin:0 0 0 4px;line-height:1.6;&quot;&gt;+ EvaluateController(): &lt;/p&gt;&lt;hr size=&quot;1&quot;/&gt;&lt;p style=&quot;margin:0 0 0 4px;line-height:1.6;&quot;&gt;- evaluateService: EvaluateService&lt;/p&gt;&lt;hr size=&quot;1&quot;/&gt;&lt;p style=&quot;margin:0 0 0 4px;line-height:1.6;&quot;&gt;+ deleteById(Integer): Result&lt;br/&gt;+ selectById(Integer): Result&lt;br/&gt;+ selectComment(Integer): Result&lt;br/&gt;+ updateById(Evaluate): Result&lt;br/&gt;+ add(Evaluate): Result&lt;br/&gt;+ selectPage(Evaluate, Integer, Integer): Result&lt;br/&gt;+ deleteBatch(List&amp;lt;Integer&amp;gt;): Result&lt;br/&gt;+ selectAll(Evaluate): Result&lt;/p&gt;" style="verticalAlign=top;align=left;overflow=fill;fontSize=14;fontFamily=Helvetica;html=1;rounded=0;shadow=0;comic=0;labelBackgroundColor=none;strokeWidth=1;">
      <mxGeometry x="-164" y="960" width="306" height="263" as="geometry" />
    </mxCell>
    <mxCell id="node10" parent="1" vertex="1" value="&lt;p style=&quot;margin:0px;margin-top:4px;text-align:center;&quot;&gt;&lt;b&gt;FileController&lt;/b&gt;&lt;/p&gt;&lt;hr size=&quot;1&quot;/&gt;&lt;p style=&quot;margin:0 0 0 4px;line-height:1.6;&quot;&gt;+ FileController(): &lt;/p&gt;&lt;hr size=&quot;1&quot;/&gt;&lt;p style=&quot;margin:0 0 0 4px;line-height:1.6;&quot;&gt;- filePath: String&lt;br/&gt;- ip: String&lt;br/&gt;- port: String&lt;/p&gt;&lt;hr size=&quot;1&quot;/&gt;&lt;p style=&quot;margin:0 0 0 4px;line-height:1.6;&quot;&gt;+ avatarPath(String, HttpServletResponse): void&lt;br/&gt;+ delFile(String): void&lt;br/&gt;+ upload(MultipartFile): Result&lt;/p&gt;" style="verticalAlign=top;align=left;overflow=fill;fontSize=14;fontFamily=Helvetica;html=1;rounded=0;shadow=0;comic=0;labelBackgroundColor=none;strokeWidth=1;">
      <mxGeometry x="-166" y="-166" width="311" height="194" as="geometry" />
    </mxCell>
    <mxCell id="node9" parent="1" vertex="1" value="&lt;p style=&quot;margin:0px;margin-top:4px;text-align:center;&quot;&gt;&lt;b&gt;NewsController&lt;/b&gt;&lt;/p&gt;&lt;hr size=&quot;1&quot;/&gt;&lt;p style=&quot;margin:0 0 0 4px;line-height:1.6;&quot;&gt;+ NewsController(): &lt;/p&gt;&lt;hr size=&quot;1&quot;/&gt;&lt;p style=&quot;margin:0 0 0 4px;line-height:1.6;&quot;&gt;- newsService: NewsService&lt;/p&gt;&lt;hr size=&quot;1&quot;/&gt;&lt;p style=&quot;margin:0 0 0 4px;line-height:1.6;&quot;&gt;+ updateById(News): Result&lt;br/&gt;+ deleteById(Integer): Result&lt;br/&gt;+ deleteBatch(List&amp;lt;Integer&amp;gt;): Result&lt;br/&gt;+ selectById(Integer): Result&lt;br/&gt;+ selectPage(News, Integer, Integer): Result&lt;br/&gt;+ selectAll(News): Result&lt;br/&gt;+ add(News): Result&lt;br/&gt;+ selectTopNews(String): Result&lt;br/&gt;+ updateCount(Integer): Result&lt;/p&gt;" style="verticalAlign=top;align=left;overflow=fill;fontSize=14;fontFamily=Helvetica;html=1;rounded=0;shadow=0;comic=0;labelBackgroundColor=none;strokeWidth=1;">
      <mxGeometry x="245" y="2288" width="289" height="286" as="geometry" />
    </mxCell>
    <mxCell id="node13" parent="1" vertex="1" value="&lt;p style=&quot;margin:0px;margin-top:4px;text-align:center;&quot;&gt;&lt;b&gt;NoticeController&lt;/b&gt;&lt;/p&gt;&lt;hr size=&quot;1&quot;/&gt;&lt;p style=&quot;margin:0 0 0 4px;line-height:1.6;&quot;&gt;+ NoticeController(): &lt;/p&gt;&lt;hr size=&quot;1&quot;/&gt;&lt;p style=&quot;margin:0 0 0 4px;line-height:1.6;&quot;&gt;- noticeService: NoticeService&lt;/p&gt;&lt;hr size=&quot;1&quot;/&gt;&lt;p style=&quot;margin:0 0 0 4px;line-height:1.6;&quot;&gt;+ add(Notice): Result&lt;br/&gt;+ selectPage(Notice, Integer, Integer): Result&lt;br/&gt;+ deleteById(Integer): Result&lt;br/&gt;+ selectById(Integer): Result&lt;br/&gt;+ selectAll(Notice): Result&lt;br/&gt;+ deleteBatch(List&amp;lt;Integer&amp;gt;): Result&lt;br/&gt;+ updateById(Notice): Result&lt;/p&gt;" style="verticalAlign=top;align=left;overflow=fill;fontSize=14;fontFamily=Helvetica;html=1;rounded=0;shadow=0;comic=0;labelBackgroundColor=none;strokeWidth=1;">
      <mxGeometry x="62" y="1971" width="295" height="240" as="geometry" />
    </mxCell>
    <mxCell id="node16" parent="1" vertex="1" value="&lt;p style=&quot;margin:0px;margin-top:4px;text-align:center;&quot;&gt;&lt;b&gt;NurseHouseController&lt;/b&gt;&lt;/p&gt;&lt;hr size=&quot;1&quot;/&gt;&lt;p style=&quot;margin:0 0 0 4px;line-height:1.6;&quot;&gt;+ NurseHouseController(): &lt;/p&gt;&lt;hr size=&quot;1&quot;/&gt;&lt;p style=&quot;margin:0 0 0 4px;line-height:1.6;&quot;&gt;- nurseHouseService: NurseHouseService&lt;/p&gt;&lt;hr size=&quot;1&quot;/&gt;&lt;p style=&quot;margin:0 0 0 4px;line-height:1.6;&quot;&gt;+ selectPage(NurseHouse, Integer, Integer): Result&lt;br/&gt;+ deleteById(Integer): Result&lt;br/&gt;+ updateCount(Integer): Result&lt;br/&gt;+ selectAll(NurseHouse): Result&lt;br/&gt;+ deleteBatch(List&amp;lt;Integer&amp;gt;): Result&lt;br/&gt;+ updateById(NurseHouse): Result&lt;br/&gt;+ selectById(Integer): Result&lt;br/&gt;+ add(NurseHouse): Result&lt;/p&gt;" style="verticalAlign=top;align=left;overflow=fill;fontSize=14;fontFamily=Helvetica;html=1;rounded=0;shadow=0;comic=0;labelBackgroundColor=none;strokeWidth=1;">
      <mxGeometry x="-175" y="1620" width="328" height="263" as="geometry" />
    </mxCell>
    <mxCell id="node5" parent="1" vertex="1" value="&lt;p style=&quot;margin:0px;margin-top:4px;text-align:center;&quot;&gt;&lt;b&gt;OrdersController&lt;/b&gt;&lt;/p&gt;&lt;hr size=&quot;1&quot;/&gt;&lt;p style=&quot;margin:0 0 0 4px;line-height:1.6;&quot;&gt;+ OrdersController(): &lt;/p&gt;&lt;hr size=&quot;1&quot;/&gt;&lt;p style=&quot;margin:0 0 0 4px;line-height:1.6;&quot;&gt;- log: Logger&lt;br/&gt;- ordersService: OrdersService&lt;/p&gt;&lt;hr size=&quot;1&quot;/&gt;&lt;p style=&quot;margin:0 0 0 4px;line-height:1.6;&quot;&gt;+ deleteBatch(List&amp;lt;Integer&amp;gt;): Result&lt;br/&gt;+ selectAll(Orders): Result&lt;br/&gt;+ addOrder(Orders): Result&lt;br/&gt;+ selectPage(Orders, Integer, Integer): Result&lt;br/&gt;+ selectPageExamine(Orders, Integer, Integer): Result&lt;br/&gt;+ updateById(Orders): Result&lt;br/&gt;+ accept(Orders): Result&lt;br/&gt;+ selectById(Integer): Result&lt;br/&gt;+ add(Orders): Result&lt;br/&gt;+ deleteById(Integer): Result&lt;/p&gt;" style="verticalAlign=top;align=left;overflow=fill;fontSize=14;fontFamily=Helvetica;html=1;rounded=0;shadow=0;comic=0;labelBackgroundColor=none;strokeWidth=1;">
      <mxGeometry x="537" y="1265" width="345" height="332" as="geometry" />
    </mxCell>
    <mxCell id="node15" parent="1" vertex="1" value="&lt;p style=&quot;margin:0px;margin-top:4px;text-align:center;&quot;&gt;&lt;b&gt;RecordsController&lt;/b&gt;&lt;/p&gt;&lt;hr size=&quot;1&quot;/&gt;&lt;p style=&quot;margin:0 0 0 4px;line-height:1.6;&quot;&gt;+ RecordsController(): &lt;/p&gt;&lt;hr size=&quot;1&quot;/&gt;&lt;p style=&quot;margin:0 0 0 4px;line-height:1.6;&quot;&gt;- recordsService: RecordsService&lt;/p&gt;&lt;hr size=&quot;1&quot;/&gt;&lt;p style=&quot;margin:0 0 0 4px;line-height:1.6;&quot;&gt;+ deleteBatch(List&amp;lt;Integer&amp;gt;): Result&lt;br/&gt;+ selectAll(Records): Result&lt;br/&gt;+ updateById(Records): Result&lt;br/&gt;+ add(Records): Result&lt;br/&gt;+ deleteById(Integer): Result&lt;br/&gt;+ selectPage(Records, Integer, Integer): Result&lt;br/&gt;+ selectById(Integer): Result&lt;/p&gt;" style="verticalAlign=top;align=left;overflow=fill;fontSize=14;fontFamily=Helvetica;html=1;rounded=0;shadow=0;comic=0;labelBackgroundColor=none;strokeWidth=1;">
      <mxGeometry x="-162" y="371" width="303" height="240" as="geometry" />
    </mxCell>
    <mxCell id="node1" parent="1" vertex="1" value="&lt;p style=&quot;margin:0px;margin-top:4px;text-align:center;&quot;&gt;&lt;b&gt;ReserveController&lt;/b&gt;&lt;/p&gt;&lt;hr size=&quot;1&quot;/&gt;&lt;p style=&quot;margin:0 0 0 4px;line-height:1.6;&quot;&gt;+ ReserveController(): &lt;/p&gt;&lt;hr size=&quot;1&quot;/&gt;&lt;p style=&quot;margin:0 0 0 4px;line-height:1.6;&quot;&gt;- reserveService: ReserveService&lt;/p&gt;&lt;hr size=&quot;1&quot;/&gt;&lt;p style=&quot;margin:0 0 0 4px;line-height:1.6;&quot;&gt;+ updateById(Reserve): Result&lt;br/&gt;+ selectPage(Reserve, Integer, Integer): Result&lt;br/&gt;+ add(Reserve): Result&lt;br/&gt;+ deleteById(Integer): Result&lt;br/&gt;+ selectById(Integer): Result&lt;br/&gt;+ selectCount(): Result&lt;br/&gt;+ selectAll(Reserve): Result&lt;br/&gt;+ deleteBatch(List&amp;lt;Integer&amp;gt;): Result&lt;/p&gt;" style="verticalAlign=top;align=left;overflow=fill;fontSize=14;fontFamily=Helvetica;html=1;rounded=0;shadow=0;comic=0;labelBackgroundColor=none;strokeWidth=1;">
      <mxGeometry x="378" y="660" width="302" height="263" as="geometry" />
    </mxCell>
    <mxCell id="node14" parent="1" vertex="1" value="&lt;p style=&quot;margin:0px;margin-top:4px;text-align:center;&quot;&gt;&lt;b&gt;ServeController&lt;/b&gt;&lt;/p&gt;&lt;hr size=&quot;1&quot;/&gt;&lt;p style=&quot;margin:0 0 0 4px;line-height:1.6;&quot;&gt;+ ServeController(): &lt;/p&gt;&lt;hr size=&quot;1&quot;/&gt;&lt;p style=&quot;margin:0 0 0 4px;line-height:1.6;&quot;&gt;- serveService: ServeService&lt;/p&gt;&lt;hr size=&quot;1&quot;/&gt;&lt;p style=&quot;margin:0 0 0 4px;line-height:1.6;&quot;&gt;+ selectAll(Serve): Result&lt;br/&gt;+ add(Serve): Result&lt;br/&gt;+ selectById(Integer): Result&lt;br/&gt;+ selectPage(Serve, Integer, Integer): Result&lt;br/&gt;+ updateById(Serve): Result&lt;br/&gt;+ deleteBatch(List&amp;lt;Integer&amp;gt;): Result&lt;br/&gt;+ deleteById(Integer): Result&lt;/p&gt;" style="verticalAlign=top;align=left;overflow=fill;fontSize=14;fontFamily=Helvetica;html=1;rounded=0;shadow=0;comic=0;labelBackgroundColor=none;strokeWidth=1;">
      <mxGeometry x="25" y="1311" width="288" height="240" as="geometry" />
    </mxCell>
    <mxCell id="node2" parent="1" vertex="1" value="&lt;p style=&quot;margin:0px;margin-top:4px;text-align:center;&quot;&gt;&lt;b&gt;UserController&lt;/b&gt;&lt;/p&gt;&lt;hr size=&quot;1&quot;/&gt;&lt;p style=&quot;margin:0 0 0 4px;line-height:1.6;&quot;&gt;+ UserController(): &lt;/p&gt;&lt;hr size=&quot;1&quot;/&gt;&lt;p style=&quot;margin:0 0 0 4px;line-height:1.6;&quot;&gt;- userService: UserService&lt;/p&gt;&lt;hr size=&quot;1&quot;/&gt;&lt;p style=&quot;margin:0 0 0 4px;line-height:1.6;&quot;&gt;+ selectPage(User, Integer, Integer): Result&lt;br/&gt;+ deleteById(Integer): Result&lt;br/&gt;+ selectById(Integer): Result&lt;br/&gt;+ updateById(User): Result&lt;br/&gt;+ deleteBatch(List&amp;lt;Integer&amp;gt;): Result&lt;br/&gt;+ add(User): Result&lt;br/&gt;+ charge(Double): Result&lt;br/&gt;+ selectAll(User): Result&lt;/p&gt;" style="verticalAlign=top;align=left;overflow=fill;fontSize=14;fontFamily=Helvetica;html=1;rounded=0;shadow=0;comic=0;labelBackgroundColor=none;strokeWidth=1;">
      <mxGeometry x="548" y="80" width="283" height="263" as="geometry" />
    </mxCell>
    <mxCell id="node8" parent="1" vertex="1" value="&lt;p style=&quot;margin:0px;margin-top:4px;text-align:center;&quot;&gt;&lt;b&gt;WebController&lt;/b&gt;&lt;/p&gt;&lt;hr size=&quot;1&quot;/&gt;&lt;p style=&quot;margin:0 0 0 4px;line-height:1.6;&quot;&gt;+ WebController(): &lt;/p&gt;&lt;hr size=&quot;1&quot;/&gt;&lt;p style=&quot;margin:0 0 0 4px;line-height:1.6;&quot;&gt;- adminService: AdminService&lt;br/&gt;- userService: UserService&lt;br/&gt;- log: Logger&lt;/p&gt;&lt;hr size=&quot;1&quot;/&gt;&lt;p style=&quot;margin:0 0 0 4px;line-height:1.6;&quot;&gt;+ login(Account): Result&lt;br/&gt;+ register(Account): Result&lt;br/&gt;+ updatePassword(Account): Result&lt;br/&gt;+ hello(): Result&lt;/p&gt;" style="verticalAlign=top;align=left;overflow=fill;fontSize=14;fontFamily=Helvetica;html=1;rounded=0;shadow=0;comic=0;labelBackgroundColor=none;strokeWidth=1;">
      <mxGeometry x="48" y="103" width="242" height="217" as="geometry" />
    </mxCell>
  </root>
</mxGraphModel>